<?xml version="1.0" standalone="no"?>
<!DOCTYPE svg PUBLIC "-//W3C//DTD SVG 20010904//EN"
 "http://www.w3.org/TR/2001/REC-SVG-20010904/DTD/svg10.dtd">
<svg version="1.0" xmlns="http://www.w3.org/2000/svg"
 width="243.000000pt" height="178.000000pt" viewBox="0 0 243.000000 178.000000"
 preserveAspectRatio="xMidYMid meet">

<g transform="translate(0.000000,178.000000) scale(0.100000,-0.100000)"
fill="#000000" stroke="none">
<path d="M0 890 l0 -890 1215 0 1215 0 0 890 0 890 -1215 0 -1215 0 0 -890z
m1461 610 c218 -67 363 -291 329 -506 -20 -127 -61 -206 -147 -284 -96 -88
-213 -129 -369 -130 l-51 0 -5 -70 c-12 -165 -128 -302 -293 -345 -106 -27
-95 -76 -95 425 0 242 3 440 6 440 3 0 24 -11 47 -24 66 -37 141 -58 240 -65
l92 -6 5 -57 5 -56 144 115 c116 94 141 118 130 127 -8 6 -72 57 -142 114 -70
56 -129 102 -132 102 -2 0 -5 -24 -7 -52 l-3 -53 -80 0 c-62 1 -90 6 -126 23
-92 44 -164 145 -176 243 -10 82 -19 79 292 79 243 0 280 -2 336 -20z"/>
</g>
</svg>
