<?xml version="1.0" standalone="no"?>
<!DOCTYPE svg PUBLIC "-//W3C//DTD SVG 20010904//EN"
 "http://www.w3.org/TR/2001/REC-SVG-20010904/DTD/svg10.dtd">
<svg version="1.0" xmlns="http://www.w3.org/2000/svg"
 width="1596.000000pt" height="666.000000pt" viewBox="0 0 1596.000000 666.000000"
 preserveAspectRatio="xMidYMid meet">

<g transform="translate(0.000000,666.000000) scale(0.100000,-0.100000)"
fill="#000000" stroke="none">
<path d="M15940 3330 c0 -2213 3 -3330 10 -3330 7 0 10 1117 10 3330 0 2213
-3 3330 -10 3330 -7 0 -10 -1117 -10 -3330z"/>
<path d="M1375 4529 c-11 -6 -307 -299 -658 -651 l-637 -640 0 -43 c0 -42 5
-49 92 -140 85 -89 118 -110 133 -85 3 6 32 27 63 49 65 43 145 66 202 57 21
-3 41 -2 45 3 3 5 -6 35 -20 67 -14 31 -25 66 -25 78 0 23 134 170 182 201 34
21 68 15 163 -30 39 -18 79 -35 90 -37 22 -3 22 -2 5 77 -7 29 -8 80 -5 120
12 128 113 292 210 342 17 9 32 19 35 24 11 17 99 41 164 45 39 3 71 6 72 7 2
2 6 32 9 67 9 94 29 148 85 230 28 39 50 74 50 77 0 2 -6 10 -12 17 -7 7 -31
33 -54 57 -103 112 -141 133 -189 108z"/>
<path d="M1779 4322 c-85 -47 -89 -50 -120 -92 -60 -81 -73 -119 -74 -215 0
-104 22 -168 86 -246 55 -66 168 -122 258 -127 61 -4 76 0 144 31 65 30 108
64 152 119 6 7 23 41 39 76 42 95 37 194 -16 293 -39 75 -85 120 -167 163 -64
33 -75 36 -152 35 -77 0 -89 -3 -150 -37z m232 -182 c53 -35 90 -95 91 -148 0
-46 -13 -75 -55 -119 -27 -29 -37 -33 -85 -33 -68 0 -117 23 -152 72 -59 81
-48 185 23 231 58 38 119 37 178 -3z"/>
<path d="M11835 4249 c-178 -13 -470 -58 -587 -90 -23 -6 -65 -15 -93 -20
-117 -19 -300 -65 -375 -94 -25 -9 -63 -20 -85 -25 -118 -25 -321 -86 -476
-142 -55 -20 -109 -66 -109 -91 0 -38 55 -94 109 -112 47 -15 57 -15 218 9
253 39 353 57 402 72 24 7 47 11 52 8 12 -7 12 -41 0 -48 -5 -3 -38 -47 -72
-97 -35 -51 -78 -108 -95 -128 -17 -20 -75 -98 -128 -173 -75 -106 -103 -138
-124 -142 -31 -6 -105 -20 -112 -21 -3 0 -29 -14 -57 -30 -47 -27 -53 -34 -53
-63 0 -19 11 -50 28 -74 58 -88 62 -98 44 -143 -9 -22 -32 -71 -53 -110 -36
-68 -74 -174 -82 -225 -2 -14 -9 -38 -16 -55 -18 -42 -19 -222 -3 -261 14 -32
92 -97 129 -106 36 -9 56 14 60 68 6 72 68 258 133 399 10 22 25 56 33 75 68
156 92 206 103 213 8 4 14 14 14 21 0 27 62 105 97 121 20 10 73 22 117 26 45
5 97 11 116 14 19 2 94 12 165 20 147 18 147 18 233 35 34 7 65 17 68 21 23
38 -56 152 -113 164 -16 4 -40 13 -55 21 -21 12 -63 14 -203 12 -97 -2 -178
-1 -181 3 -5 9 23 64 41 79 8 7 15 18 15 25 0 7 7 18 16 26 8 7 34 42 58 78
125 194 223 301 301 331 36 14 229 52 380 75 61 9 162 25 225 35 63 10 147 21
185 25 75 7 122 12 170 20 33 6 198 25 259 30 71 6 126 16 131 25 6 10 -16 34
-55 57 -17 9 -30 21 -30 25 0 4 -8 8 -19 8 -10 0 -24 7 -31 15 -14 17 -84 50
-150 71 -92 28 -333 39 -545 23z"/>
<path d="M12897 4108 c-26 -39 -183 -194 -229 -226 -23 -17 -71 -47 -105 -67
-81 -46 -93 -67 -58 -99 25 -23 95 -43 113 -32 5 3 44 14 87 26 43 11 97 30
121 40 24 11 46 20 50 20 14 0 139 78 171 107 80 72 51 154 -80 229 -51 29
-51 29 -70 2z"/>
<path d="M14884 4094 c-102 -54 -161 -138 -178 -251 -5 -38 25 -90 64 -111 58
-31 193 12 265 84 63 63 89 135 73 206 -20 92 -123 126 -224 72z"/>
<path d="M15638 4100 c-36 -28 -351 -448 -461 -615 -37 -55 -76 -113 -87 -130
-19 -26 -119 -182 -160 -246 -8 -13 -20 -35 -26 -49 -6 -14 -23 -36 -37 -50
-15 -14 -27 -29 -27 -34 0 -5 -11 -24 -25 -42 -14 -18 -25 -36 -25 -39 0 -8
-74 -88 -140 -152 -98 -95 -118 -113 -126 -113 -4 0 -17 -9 -29 -20 -32 -30
-131 -88 -162 -94 -45 -10 -56 5 -51 66 2 29 12 69 21 87 9 19 17 38 17 42 0
24 130 289 142 289 4 0 15 17 23 37 14 32 139 228 155 243 23 20 50 66 50 84
-1 32 -87 117 -158 155 -33 18 -72 -10 -124 -88 -24 -36 -51 -76 -62 -88 -10
-12 -24 -30 -30 -41 -18 -31 -47 -72 -93 -134 -24 -31 -43 -60 -43 -63 0 -4
-19 -33 -42 -65 -24 -31 -63 -86 -88 -120 -61 -85 -267 -294 -349 -353 -83
-60 -123 -87 -128 -87 -4 0 -14 -6 -22 -14 -15 -13 -142 -56 -208 -71 -47 -10
-138 12 -173 42 -55 46 -72 119 -49 208 5 22 12 50 15 63 23 109 86 248 170
374 47 70 191 235 207 237 5 1 20 15 34 31 14 17 38 37 54 45 32 17 95 20 104
5 12 -20 7 -77 -11 -115 -18 -38 -93 -165 -104 -175 -10 -9 -40 -68 -40 -78 0
-19 60 -34 118 -30 61 4 117 35 179 96 28 29 32 36 73 125 28 60 22 138 -15
201 -35 59 -63 83 -131 109 -50 20 -73 23 -141 20 -45 -2 -95 -10 -110 -18
-15 -8 -33 -15 -40 -15 -22 0 -122 -48 -180 -87 -81 -53 -228 -202 -301 -305
-34 -47 -62 -91 -62 -96 0 -6 -6 -17 -13 -24 -7 -7 -28 -44 -46 -81 -58 -119
-175 -254 -292 -337 -81 -57 -102 -68 -143 -76 -30 -5 -35 -3 -42 18 -11 36
-5 86 16 131 11 23 20 46 20 53 0 22 105 243 121 254 4 3 12 18 18 33 6 15 32
59 58 98 26 39 55 81 63 93 8 13 36 52 63 86 26 35 47 73 47 83 0 10 -15 34
-34 53 -19 19 -36 40 -39 47 -2 7 -28 25 -55 40 -49 27 -53 27 -81 12 -17 -8
-37 -28 -45 -43 -8 -15 -26 -40 -40 -55 -32 -35 -47 -27 -78 41 -23 48 -75 88
-125 95 -51 8 -183 -11 -230 -33 -23 -11 -47 -20 -53 -20 -30 0 -201 -114
-285 -190 -84 -76 -205 -210 -205 -227 0 -7 -4 -13 -8 -13 -4 0 -16 -15 -27
-32 -10 -18 -22 -35 -25 -38 -11 -8 -125 -247 -153 -320 -40 -107 -67 -230
-67 -308 0 -115 102 -222 210 -222 52 0 154 37 247 88 36 20 198 182 222 222
11 19 21 31 21 25 0 -5 9 5 20 23 17 28 23 32 35 22 8 -7 12 -17 8 -24 -14
-21 -16 -42 -15 -131 1 -101 23 -160 76 -199 31 -24 125 -29 167 -10 49 23
115 55 134 67 49 29 135 88 140 97 3 6 13 10 21 10 8 0 25 11 37 24 12 12 51
47 87 77 36 29 68 57 71 61 10 15 25 -14 39 -76 14 -59 64 -146 114 -198 69
-72 234 -94 391 -53 76 20 238 87 255 106 3 3 23 16 45 29 50 29 66 42 188
139 53 43 104 78 111 78 11 0 13 -22 9 -116 -4 -100 -2 -122 14 -157 25 -54
73 -95 122 -101 98 -13 340 121 528 293 95 86 96 85 89 -44 -5 -86 13 -164 46
-199 27 -29 80 -53 117 -53 72 1 241 87 371 190 21 16 41 30 45 30 4 0 18 10
30 23 12 12 50 47 84 77 68 59 244 236 249 250 5 13 -59 81 -85 91 -19 7 -32
-1 -90 -59 -107 -105 -208 -186 -285 -227 -30 -15 -43 -17 -65 -9 -26 9 -28
13 -26 62 2 50 47 175 91 253 10 19 49 90 87 159 37 69 78 138 91 153 13 16
24 33 24 38 0 5 8 22 19 37 52 74 131 200 131 208 0 5 15 25 33 45 17 20 50
65 72 100 56 88 63 97 130 184 33 43 67 87 75 99 8 12 28 39 44 59 28 37 28
38 10 60 -55 66 -148 147 -169 147 -7 0 -24 -9 -37 -20z m-3310 -721 c23 -8
35 -21 48 -55 20 -54 14 -94 -24 -142 -16 -21 -50 -68 -77 -107 -27 -38 -54
-74 -60 -80 -6 -5 -33 -41 -60 -80 -26 -38 -53 -74 -60 -80 -6 -5 -16 -17 -21
-26 -31 -56 -267 -299 -329 -340 -62 -42 -81 -44 -101 -15 -37 57 3 177 154
459 36 66 144 210 217 286 38 41 78 83 88 93 10 10 41 34 70 52 72 47 103 53
155 35z"/>
<path d="M7010 4044 c-345 -75 -595 -305 -697 -644 -92 -304 -31 -654 156
-890 64 -81 167 -175 228 -207 115 -60 146 -75 203 -93 138 -46 335 -62 470
-38 193 34 402 123 524 224 l66 54 0 415 c0 227 -4 416 -8 419 -7 4 -670 9
-794 6 -17 0 -18 -17 -18 -205 l0 -205 154 0 c96 0 157 -4 161 -10 12 -19 12
-139 1 -161 -13 -27 -79 -49 -200 -66 -91 -13 -237 39 -317 114 -135 125 -178
395 -90 575 53 111 143 190 251 222 93 28 261 6 345 -46 17 -10 37 -21 45 -25
8 -3 37 -24 64 -45 27 -21 52 -38 56 -38 8 0 63 66 150 180 30 40 76 99 103
132 26 33 47 64 47 68 0 14 -134 116 -205 156 -79 45 -219 96 -311 113 -82 15
-304 13 -384 -5z"/>
<path d="M8830 4050 c-8 -5 -26 -10 -39 -10 -27 0 -164 -50 -225 -83 -116 -61
-249 -175 -316 -273 -88 -127 -154 -290 -177 -439 -14 -96 -3 -338 18 -360 5
-5 9 -19 9 -31 0 -35 53 -156 114 -259 36 -63 209 -255 228 -255 4 0 38 -19
75 -43 261 -166 612 -180 890 -36 43 22 92 48 108 57 17 9 71 57 121 106 102
102 187 230 223 336 12 36 26 74 31 85 26 60 38 330 20 443 -23 144 -82 279
-177 407 -134 181 -315 296 -551 350 -72 17 -328 20 -352 5z m270 -502 c49
-15 120 -50 120 -60 0 -4 6 -8 13 -8 18 0 95 -102 121 -162 39 -91 52 -186 36
-281 -36 -229 -184 -368 -390 -370 -105 0 -177 28 -262 102 -154 136 -185 438
-64 617 99 146 268 210 426 162z"/>
<path d="M5193 4028 c-6 -7 -25 -51 -42 -98 -18 -47 -40 -98 -50 -115 -9 -16
-23 -50 -31 -75 -7 -25 -17 -49 -22 -55 -4 -5 -8 -15 -8 -22 0 -7 -11 -36 -24
-65 -32 -72 -119 -280 -168 -403 -22 -55 -46 -115 -54 -132 -8 -18 -20 -48
-28 -65 -8 -18 -39 -94 -69 -168 -30 -74 -98 -241 -151 -370 -54 -129 -98
-239 -99 -245 -1 -6 97 -11 275 -13 l277 -2 20 44 c10 24 36 90 56 145 22 59
46 108 58 116 17 12 74 14 314 13 253 -1 295 -4 307 -17 7 -9 30 -61 50 -116
21 -55 46 -119 57 -142 l19 -43 280 0 c154 0 280 3 280 8 -1 12 -66 181 -73
189 -4 3 -7 13 -7 21 0 8 -10 35 -23 61 -13 25 -36 80 -51 121 -16 41 -42 107
-58 145 -17 39 -37 84 -44 100 -7 17 -27 66 -45 110 -17 44 -51 126 -75 183
-24 57 -44 107 -44 112 0 5 -11 33 -24 62 -52 115 -65 147 -111 263 -26 66
-56 140 -67 165 -11 25 -24 54 -28 65 -5 11 -28 67 -52 125 l-44 105 -246 3
c-189 2 -248 -1 -255 -10z m284 -778 c14 -36 31 -78 38 -95 20 -44 56 -147 62
-172 l5 -23 -141 0 c-133 0 -141 1 -141 19 0 11 5 23 10 26 6 3 10 14 10 24 0
10 9 40 21 67 11 27 24 58 29 69 4 11 16 40 25 65 9 25 21 55 26 68 14 36 29
23 56 -48z"/>
<path d="M2533 3988 c-22 -24 -79 -81 -127 -127 -47 -46 -86 -87 -86 -92 0 -5
-28 -37 -62 -72 -77 -79 -161 -123 -262 -139 l-74 -12 -6 -46 c-22 -166 -138
-327 -287 -398 -36 -17 -48 -29 -52 -51 -6 -31 -163 -199 -205 -221 -27 -13
-67 -8 -109 13 l-31 16 -41 -49 -42 -49 21 -43 c11 -23 20 -51 20 -61 0 -12
-43 -63 -102 -123 -97 -99 -104 -104 -143 -104 -45 0 -67 21 -94 88 -12 29
-41 45 -41 23 0 -5 -12 -23 -26 -41 l-26 -31 46 -49 c36 -39 46 -56 46 -84 0
-41 -15 -60 -163 -209 -69 -69 -107 -114 -105 -125 3 -16 66 -17 978 -19 654
-2 983 1 1001 8 14 5 33 23 42 38 15 26 17 108 16 1002 -1 646 -4 978 -11 987
-17 20 -33 14 -75 -30z m-186 -454 c6 -21 12 -55 12 -75 1 -20 8 -55 16 -78 8
-23 14 -50 12 -59 -2 -17 24 -111 45 -164 20 -52 38 -33 45 50 6 66 10 73 41
61 24 -9 25 -14 22 -109 -3 -101 -25 -183 -54 -202 -19 -13 -64 -9 -80 7 -14
14 -16 13 -22 -12 -14 -67 -37 -139 -46 -150 -15 -18 -68 -16 -90 3 -20 19
-17 25 -43 -80 -28 -107 -97 -169 -163 -144 -32 11 -40 4 -47 -40 -4 -20 -13
-58 -22 -85 -17 -53 -45 -68 -95 -49 -33 12 -34 11 -37 -53 -2 -41 -7 -55 -32
-77 -41 -39 -74 -36 -115 9 -19 20 -34 40 -34 44 0 4 -12 33 -27 65 l-26 58
-16 -24 c-9 -13 -33 -44 -54 -69 -21 -25 -40 -55 -43 -67 -7 -26 27 -128 68
-207 26 -48 29 -61 17 -68 -22 -14 -62 -11 -88 7 -22 16 -81 126 -81 152 0 6
-4 13 -10 13 -5 1 -14 3 -20 4 -5 1 -14 3 -19 4 -15 2 -19 50 -5 70 18 25 24
62 13 82 -4 8 -10 34 -12 57 -2 23 -6 44 -9 47 -2 3 -24 -24 -47 -60 -24 -35
-56 -71 -72 -79 -27 -14 -32 -13 -49 4 -23 23 -15 50 54 170 27 47 56 99 64
115 9 17 19 32 23 35 18 12 59 82 54 91 -4 5 1 9 9 9 9 0 16 4 16 8 0 19 137
150 173 166 39 18 87 15 87 -4 0 -6 -26 -44 -57 -86 -32 -42 -67 -89 -78 -104
-11 -15 -36 -50 -55 -76 -32 -45 -35 -54 -34 -115 1 -37 6 -74 11 -84 9 -15
14 -13 46 19 40 40 89 49 105 20 6 -11 10 13 10 73 1 49 5 100 10 114 15 38
61 89 82 89 10 0 29 15 44 34 22 30 30 34 58 29 39 -6 40 -7 42 -30 6 -56 38
-174 55 -202 15 -24 31 -2 31 42 0 24 -7 70 -16 102 -21 83 -20 190 5 247 25
58 76 92 121 81 62 -16 88 -110 47 -165 -23 -30 -38 -24 -56 20 -9 24 -21 42
-27 40 -15 -5 -7 -129 10 -171 37 -86 82 -99 119 -34 22 37 25 55 25 150 1 59
-3 120 -8 135 -5 15 -11 47 -14 72 -3 25 -7 54 -8 64 -2 15 6 22 35 29 52 13
64 5 72 -45 9 -58 45 -177 55 -183 5 -3 12 0 16 6 10 17 12 160 2 188 -13 37
-57 270 -61 331 -4 47 -2 57 15 66 11 6 32 10 46 9 22 -1 29 -8 39 -41z m-166
-115 c20 -20 23 -66 8 -119 -6 -23 -50 -32 -76 -14 -19 12 -23 23 -23 67 0 55
6 71 30 80 27 10 40 7 61 -14z m-415 -417 c25 -16 25 -52 0 -105 -33 -70 -60
-102 -79 -94 -13 5 -15 20 -10 99 3 54 10 96 16 100 15 10 59 10 73 0z"/>
<path d="M1723 2693 c-22 -8 -15 -148 10 -223 39 -117 57 -67 37 102 -12 98
-25 130 -47 121z"/>
<path d="M3261 4016 c-8 -10 -10 -256 -9 -912 l3 -899 265 0 265 0 0 248 0
247 30 1 c17 1 91 3 165 4 253 3 424 55 562 170 99 82 169 195 202 323 21 82
21 259 0 348 -13 58 -75 199 -93 214 -3 3 -24 25 -46 50 -21 25 -47 50 -56 55
-9 6 -42 27 -73 48 -75 49 -179 85 -301 102 -141 21 -897 22 -914 1z m876
-492 c66 -41 88 -82 88 -170 0 -88 -28 -137 -100 -174 -45 -23 -59 -25 -189
-25 l-141 0 -5 185 c-3 102 -1 193 4 204 8 17 18 18 152 14 137 -5 146 -6 191
-34z"/>
<path d="M1315 3847 c-161 -78 -251 -245 -215 -398 31 -127 88 -198 220 -273
28 -17 53 -20 130 -20 84 0 101 3 148 28 114 58 207 189 219 308 l5 53 -97
103 c-53 56 -104 102 -114 102 -18 0 -211 -189 -211 -207 0 -16 80 -93 97 -93
8 0 28 14 45 30 36 36 65 38 79 6 14 -30 -8 -75 -56 -111 -132 -101 -325 50
-271 213 13 38 25 52 63 76 26 15 62 30 81 33 18 3 36 11 38 17 2 6 -2 45 -9
86 l-13 75 -34 3 c-24 2 -58 -8 -105 -31z"/>
<path d="M721 3275 c-61 -63 -62 -65 -48 -92 8 -15 27 -59 42 -98 15 -38 33
-83 40 -100 7 -16 37 -88 65 -160 29 -71 58 -143 65 -160 43 -98 61 -135 65
-135 10 0 140 132 140 142 0 5 -7 23 -16 39 -31 61 -24 84 57 165 40 41 79 74
86 74 8 0 38 -8 67 -19 l54 -19 71 72 71 71 -63 31 c-34 18 -105 48 -157 69
-52 20 -117 47 -145 59 -125 56 -304 126 -321 126 -6 0 -39 -29 -73 -65z m317
-248 c4 -18 -40 -67 -60 -67 -18 0 -64 103 -54 119 9 14 110 -32 114 -52z"/>
<path d="M472 2974 c-24 -8 -53 -23 -65 -32 -55 -43 -257 -247 -257 -260 0
-17 459 -482 475 -482 10 0 96 85 124 122 10 14 4 25 -48 79 -34 34 -61 67
-61 72 0 6 22 33 49 62 62 66 90 120 97 193 8 72 -16 133 -73 188 -72 70 -151
89 -241 58z m108 -204 c31 -31 27 -87 -11 -133 -19 -23 -39 -37 -53 -37 -23 0
-60 34 -91 83 -17 27 -17 27 23 67 46 47 97 55 132 20z"/>
</g>
</svg>
